<mxfile host="app.diagrams.net" agent="Mozilla/5.0 (Windows NT 10.0; Win64; x64) AppleWebKit/537.36 (KHTML, like Gecko) Chrome/128.0.0.0 Safari/537.36" version="24.7.8">
  <diagram name="第 1 页" id="bj-qT0z5M-wbY_1Bd1hW">
    <mxGraphModel dx="1434" dy="772" grid="1" gridSize="10" guides="1" tooltips="1" connect="1" arrows="1" fold="1" page="1" pageScale="1" pageWidth="827" pageHeight="1169" math="0" shadow="0">
      <root>
        <mxCell id="0" />
        <mxCell id="1" parent="0" />
        <mxCell id="L8lVI9piHsUIfkFuc25Y-2" value="open" style="swimlane;whiteSpace=wrap;html=1;" vertex="1" parent="1">
          <mxGeometry x="70" y="110" width="220" height="590" as="geometry">
            <mxRectangle x="70" y="60" width="70" height="30" as="alternateBounds" />
          </mxGeometry>
        </mxCell>
        <mxCell id="L8lVI9piHsUIfkFuc25Y-7" value="" style="edgeStyle=orthogonalEdgeStyle;rounded=0;orthogonalLoop=1;jettySize=auto;html=1;" edge="1" parent="L8lVI9piHsUIfkFuc25Y-2" source="L8lVI9piHsUIfkFuc25Y-29" target="L8lVI9piHsUIfkFuc25Y-6">
          <mxGeometry relative="1" as="geometry" />
        </mxCell>
        <mxCell id="L8lVI9piHsUIfkFuc25Y-5" value="读取设备树" style="rounded=0;whiteSpace=wrap;html=1;" vertex="1" parent="L8lVI9piHsUIfkFuc25Y-2">
          <mxGeometry x="50" y="40" width="120" height="60" as="geometry" />
        </mxCell>
        <mxCell id="L8lVI9piHsUIfkFuc25Y-31" style="edgeStyle=orthogonalEdgeStyle;rounded=0;orthogonalLoop=1;jettySize=auto;html=1;exitX=0.5;exitY=1;exitDx=0;exitDy=0;entryX=0.5;entryY=0;entryDx=0;entryDy=0;" edge="1" parent="L8lVI9piHsUIfkFuc25Y-2" source="L8lVI9piHsUIfkFuc25Y-6" target="L8lVI9piHsUIfkFuc25Y-28">
          <mxGeometry relative="1" as="geometry" />
        </mxCell>
        <mxCell id="L8lVI9piHsUIfkFuc25Y-6" value="初始化定时和中断" style="rounded=0;whiteSpace=wrap;html=1;" vertex="1" parent="L8lVI9piHsUIfkFuc25Y-2">
          <mxGeometry x="50" y="280" width="120" height="60" as="geometry" />
        </mxCell>
        <mxCell id="L8lVI9piHsUIfkFuc25Y-28" value="申请等待队列" style="whiteSpace=wrap;html=1;" vertex="1" parent="L8lVI9piHsUIfkFuc25Y-2">
          <mxGeometry x="50" y="400" width="120" height="60" as="geometry" />
        </mxCell>
        <mxCell id="L8lVI9piHsUIfkFuc25Y-30" value="" style="edgeStyle=orthogonalEdgeStyle;rounded=0;orthogonalLoop=1;jettySize=auto;html=1;" edge="1" parent="L8lVI9piHsUIfkFuc25Y-2" source="L8lVI9piHsUIfkFuc25Y-5" target="L8lVI9piHsUIfkFuc25Y-29">
          <mxGeometry relative="1" as="geometry">
            <mxPoint x="180" y="210" as="sourcePoint" />
            <mxPoint x="170" y="390" as="targetPoint" />
          </mxGeometry>
        </mxCell>
        <mxCell id="L8lVI9piHsUIfkFuc25Y-29" value="初始化外设" style="rounded=0;whiteSpace=wrap;html=1;" vertex="1" parent="L8lVI9piHsUIfkFuc25Y-2">
          <mxGeometry x="50" y="160" width="120" height="60" as="geometry" />
        </mxCell>
        <mxCell id="L8lVI9piHsUIfkFuc25Y-16" value="read" style="swimlane;whiteSpace=wrap;html=1;" vertex="1" parent="1">
          <mxGeometry x="320" y="110" width="230" height="780" as="geometry" />
        </mxCell>
        <mxCell id="L8lVI9piHsUIfkFuc25Y-23" value="" style="edgeStyle=orthogonalEdgeStyle;rounded=0;orthogonalLoop=1;jettySize=auto;html=1;" edge="1" parent="L8lVI9piHsUIfkFuc25Y-16" source="L8lVI9piHsUIfkFuc25Y-24" target="L8lVI9piHsUIfkFuc25Y-26">
          <mxGeometry relative="1" as="geometry" />
        </mxCell>
        <mxCell id="L8lVI9piHsUIfkFuc25Y-24" value="申请当前进程的等待" style="whiteSpace=wrap;html=1;rounded=0;" vertex="1" parent="L8lVI9piHsUIfkFuc25Y-16">
          <mxGeometry x="40" y="40" width="120" height="60" as="geometry" />
        </mxCell>
        <mxCell id="L8lVI9piHsUIfkFuc25Y-25" value="" style="edgeStyle=orthogonalEdgeStyle;rounded=0;orthogonalLoop=1;jettySize=auto;html=1;" edge="1" parent="L8lVI9piHsUIfkFuc25Y-16" source="L8lVI9piHsUIfkFuc25Y-26" target="L8lVI9piHsUIfkFuc25Y-27">
          <mxGeometry relative="1" as="geometry" />
        </mxCell>
        <mxCell id="L8lVI9piHsUIfkFuc25Y-26" value="&amp;nbsp;将等待加入到等待队列中" style="whiteSpace=wrap;html=1;rounded=0;" vertex="1" parent="L8lVI9piHsUIfkFuc25Y-16">
          <mxGeometry x="40" y="150" width="120" height="60" as="geometry" />
        </mxCell>
        <mxCell id="L8lVI9piHsUIfkFuc25Y-33" style="edgeStyle=orthogonalEdgeStyle;rounded=0;orthogonalLoop=1;jettySize=auto;html=1;exitX=0.5;exitY=1;exitDx=0;exitDy=0;" edge="1" parent="L8lVI9piHsUIfkFuc25Y-16" source="L8lVI9piHsUIfkFuc25Y-27" target="L8lVI9piHsUIfkFuc25Y-32">
          <mxGeometry relative="1" as="geometry" />
        </mxCell>
        <mxCell id="L8lVI9piHsUIfkFuc25Y-27" value="进程轮转将cpu交出去" style="whiteSpace=wrap;html=1;rounded=0;" vertex="1" parent="L8lVI9piHsUIfkFuc25Y-16">
          <mxGeometry x="40" y="270" width="120" height="60" as="geometry" />
        </mxCell>
        <mxCell id="L8lVI9piHsUIfkFuc25Y-35" style="edgeStyle=orthogonalEdgeStyle;rounded=0;orthogonalLoop=1;jettySize=auto;html=1;exitX=0.5;exitY=1;exitDx=0;exitDy=0;entryX=0.5;entryY=0;entryDx=0;entryDy=0;" edge="1" parent="L8lVI9piHsUIfkFuc25Y-16" source="L8lVI9piHsUIfkFuc25Y-32" target="L8lVI9piHsUIfkFuc25Y-34">
          <mxGeometry relative="1" as="geometry" />
        </mxCell>
        <mxCell id="L8lVI9piHsUIfkFuc25Y-32" value="被唤醒" style="rounded=0;whiteSpace=wrap;html=1;" vertex="1" parent="L8lVI9piHsUIfkFuc25Y-16">
          <mxGeometry x="40" y="380" width="120" height="60" as="geometry" />
        </mxCell>
        <mxCell id="L8lVI9piHsUIfkFuc25Y-37" style="edgeStyle=orthogonalEdgeStyle;rounded=0;orthogonalLoop=1;jettySize=auto;html=1;exitX=0.5;exitY=1;exitDx=0;exitDy=0;entryX=0.5;entryY=0;entryDx=0;entryDy=0;" edge="1" parent="L8lVI9piHsUIfkFuc25Y-16" source="L8lVI9piHsUIfkFuc25Y-34" target="L8lVI9piHsUIfkFuc25Y-36">
          <mxGeometry relative="1" as="geometry" />
        </mxCell>
        <mxCell id="L8lVI9piHsUIfkFuc25Y-34" value="将进程等待从队列中删除" style="whiteSpace=wrap;html=1;" vertex="1" parent="L8lVI9piHsUIfkFuc25Y-16">
          <mxGeometry x="40" y="485" width="120" height="60" as="geometry" />
        </mxCell>
        <mxCell id="L8lVI9piHsUIfkFuc25Y-40" style="edgeStyle=orthogonalEdgeStyle;rounded=0;orthogonalLoop=1;jettySize=auto;html=1;exitX=0.5;exitY=1;exitDx=0;exitDy=0;entryX=0.5;entryY=0;entryDx=0;entryDy=0;" edge="1" parent="L8lVI9piHsUIfkFuc25Y-16" source="L8lVI9piHsUIfkFuc25Y-36" target="L8lVI9piHsUIfkFuc25Y-38">
          <mxGeometry relative="1" as="geometry" />
        </mxCell>
        <mxCell id="L8lVI9piHsUIfkFuc25Y-36" value="使用I2C读取" style="rounded=0;whiteSpace=wrap;html=1;" vertex="1" parent="L8lVI9piHsUIfkFuc25Y-16">
          <mxGeometry x="40" y="580" width="120" height="60" as="geometry" />
        </mxCell>
        <mxCell id="L8lVI9piHsUIfkFuc25Y-39" style="edgeStyle=orthogonalEdgeStyle;rounded=0;orthogonalLoop=1;jettySize=auto;html=1;exitX=0.5;exitY=1;exitDx=0;exitDy=0;" edge="1" parent="L8lVI9piHsUIfkFuc25Y-16" source="L8lVI9piHsUIfkFuc25Y-38">
          <mxGeometry relative="1" as="geometry">
            <mxPoint x="110" y="720" as="targetPoint" />
          </mxGeometry>
        </mxCell>
        <mxCell id="L8lVI9piHsUIfkFuc25Y-38" value="传递给应用层" style="rounded=0;whiteSpace=wrap;html=1;" vertex="1" parent="L8lVI9piHsUIfkFuc25Y-16">
          <mxGeometry x="40" y="680" width="120" height="60" as="geometry" />
        </mxCell>
        <mxCell id="L8lVI9piHsUIfkFuc25Y-41" value="中断" style="swimlane;whiteSpace=wrap;html=1;" vertex="1" parent="1">
          <mxGeometry x="580" y="110" width="220" height="200" as="geometry" />
        </mxCell>
        <mxCell id="L8lVI9piHsUIfkFuc25Y-42" value="定时器jiffies 设置3ms" style="rounded=0;whiteSpace=wrap;html=1;" vertex="1" parent="L8lVI9piHsUIfkFuc25Y-41">
          <mxGeometry x="50" y="60" width="120" height="60" as="geometry" />
        </mxCell>
        <mxCell id="L8lVI9piHsUIfkFuc25Y-45" value="定时器回调函数" style="swimlane;whiteSpace=wrap;html=1;" vertex="1" parent="1">
          <mxGeometry x="580" y="380" width="200" height="200" as="geometry" />
        </mxCell>
        <mxCell id="L8lVI9piHsUIfkFuc25Y-46" value="唤醒等待队列" style="rounded=0;whiteSpace=wrap;html=1;" vertex="1" parent="L8lVI9piHsUIfkFuc25Y-45">
          <mxGeometry x="50" y="70" width="120" height="60" as="geometry" />
        </mxCell>
      </root>
    </mxGraphModel>
  </diagram>
</mxfile>
